<svg xmlns="http://www.w3.org/2000/svg" viewBox="0 0 64 64" fill="#c8ff00">
  <!-- Pixel cursor arrow -->
  <rect x="8" y="4" width="4" height="4"/>
  <rect x="8" y="8" width="4" height="4"/>
  <rect x="8" y="12" width="4" height="4"/>
  <rect x="8" y="16" width="4" height="4"/>
  <rect x="8" y="20" width="4" height="4"/>
  <rect x="8" y="24" width="4" height="4"/>
  <rect x="8" y="28" width="4" height="4"/>
  <rect x="8" y="32" width="4" height="4"/>
  <rect x="8" y="36" width="4" height="4"/>
  <rect x="8" y="40" width="4" height="4"/>
  <rect x="8" y="44" width="4" height="4"/>
  <rect x="12" y="8" width="4" height="4"/>
  <rect x="12" y="32" width="4" height="4"/>
  <rect x="16" y="12" width="4" height="4"/>
  <rect x="16" y="28" width="4" height="4"/>
  <rect x="16" y="32" width="4" height="4"/>
  <rect x="20" y="16" width="4" height="4"/>
  <rect x="20" y="24" width="4" height="4"/>
  <rect x="20" y="32" width="4" height="4"/>
  <rect x="24" y="20" width="4" height="4"/>
  <rect x="24" y="28" width="4" height="4"/>
  <rect x="24" y="36" width="4" height="4"/>
  <rect x="28" y="24" width="4" height="4"/>
  <rect x="28" y="32" width="4" height="4"/>
  <rect x="28" y="40" width="4" height="4"/>
  <rect x="32" y="28" width="4" height="4"/>
  <rect x="32" y="36" width="4" height="4"/>
  <!-- Dissolving pixels -->
  <rect x="36" y="24" width="4" height="4" opacity="0.9"/>
  <rect x="36" y="32" width="4" height="4" opacity="0.8"/>
  <rect x="40" y="20" width="4" height="4" opacity="0.7"/>
  <rect x="40" y="28" width="4" height="4" opacity="0.6"/>
  <rect x="44" y="16" width="4" height="4" opacity="0.5"/>
  <rect x="44" y="24" width="4" height="4" opacity="0.4"/>
  <rect x="48" y="12" width="3" height="3" opacity="0.3"/>
  <rect x="48" y="20" width="3" height="3" opacity="0.25"/>
  <rect x="52" y="8" width="2" height="2" opacity="0.2"/>
  <rect x="52" y="16" width="2" height="2" opacity="0.15"/>
</svg>
